<svg width="48" height="41" viewBox="0 0 48 41" fill="none" xmlns="http://www.w3.org/2000/svg">
<path d="M23.5379 38.252H3.34212C2.54179 38.2504 1.77479 37.9914 1.20879 37.5317L1.13188 37.4527C0.618401 37.0061 0.329541 36.4194 0.322266 35.8082L0.322266 2.45365C0.322579 2.13157 0.401038 1.8127 0.553156 1.51527C0.705275 1.21785 0.928067 0.947711 1.20879 0.720308L1.3019 0.657816C1.85138 0.240337 2.57367 0.00559143 3.32592 0L37.5158 0C38.3161 0.00173623 39.0829 0.260803 39.6488 0.720576C40.2147 1.18035 40.5335 1.80344 40.5357 2.45365V18.7017C39.6863 18.5096 38.8182 18.3776 37.9409 18.307V2.45365C37.9311 2.36628 37.8827 2.28475 37.8045 2.22424C37.7263 2.16374 37.6237 2.12838 37.5158 2.12475H3.34212C3.2452 2.1252 3.15122 2.15181 3.07494 2.20039L3.04256 2.22671C2.9631 2.29134 2.91804 2.37874 2.91707 2.4701V35.7983C2.91593 35.8763 2.94893 35.9521 3.01018 36.0121L3.04661 36.0384C3.08435 36.0715 3.13006 36.0979 3.1809 36.116C3.23173 36.1341 3.28661 36.1435 3.34212 36.1437H22.0644C22.4706 36.8835 22.964 37.5896 23.5379 38.252ZM34.8036 27.0099H35.9735C36.081 27.0094 36.1876 27.0263 36.287 27.0596C36.3864 27.0929 36.4766 27.142 36.5524 27.204C36.7066 27.3299 36.7938 27.5 36.7953 27.6776V31.1706H40.6773C40.8921 31.1706 41.098 31.2399 41.2498 31.3633C41.4017 31.4866 41.487 31.654 41.487 31.8284V32.8151C41.483 32.9924 41.3962 33.1617 41.2441 33.2888L41.2117 33.3118C41.0622 33.4222 40.8672 33.4832 40.6652 33.4828H34.3259C34.2186 33.4828 34.1156 33.4482 34.0397 33.3865C33.9638 33.3248 33.9211 33.2411 33.9211 33.1539V27.6283C33.9343 27.4679 34.0192 27.3169 34.16 27.204C34.2354 27.1414 34.3255 27.0917 34.4249 27.0579C34.5243 27.024 34.631 27.0066 34.7388 27.0066L34.8036 27.0099ZM36.35 21.504C39.043 21.5018 41.6537 22.2586 43.7369 23.6452C45.8202 25.0319 47.2471 26.9627 47.7744 29.1084C48.3018 31.2542 47.8969 33.4822 46.6289 35.4126C45.3608 37.343 43.3081 38.8563 40.8205 39.6947C38.3329 40.533 35.5645 40.6444 32.9871 40.01C30.4097 39.3755 28.1829 38.0345 26.6862 36.2154C25.1896 34.3963 24.5156 32.2118 24.7793 30.0341C25.043 27.8565 26.2281 25.8206 28.1324 24.2734C29.2107 23.3953 30.4915 22.6988 31.9016 22.2235C33.3117 21.7483 34.8234 21.5038 36.35 21.504ZM42.9321 25.6121C41.4086 24.3747 39.4042 23.6049 37.2605 23.4338C35.1167 23.2626 32.9663 23.7007 31.1755 24.6734C29.3847 25.6461 28.0645 27.0932 27.4397 28.7682C26.8149 30.4431 26.9242 32.2423 27.7491 33.8591C28.5739 35.4759 30.0632 36.8103 31.9632 37.635C33.8632 38.4596 36.0563 38.7234 38.1689 38.3815C40.2815 38.0396 42.1828 37.113 43.5488 35.7598C44.9149 34.4065 45.6612 32.7103 45.6605 30.9601C45.6624 29.9668 45.4227 28.983 44.9552 28.0652C44.4877 27.1474 43.8015 26.3137 42.9362 25.6121H42.9321ZM17.6115 27.4211C17.2716 27.3703 16.9643 27.2244 16.7431 27.0087C16.5219 26.793 16.4008 26.5211 16.4008 26.2403C16.4008 25.9595 16.5219 25.6876 16.7431 25.4718C16.9643 25.2561 17.2716 25.1102 17.6115 25.0595H21.4896C21.8295 25.1102 22.1367 25.2561 22.3579 25.4718C22.5792 25.6876 22.7003 25.9595 22.7003 26.2403C22.7003 26.5211 22.5792 26.793 22.3579 27.0087C22.1367 27.2244 21.8295 27.3703 21.4896 27.4211H17.6115ZM8.70579 24.3688H12.349C12.4154 24.3637 12.4823 24.37 12.5455 24.3873C12.6087 24.4045 12.6668 24.4323 12.716 24.4688C12.7652 24.5054 12.8044 24.5499 12.8311 24.5995C12.8579 24.6491 12.8715 24.7027 12.8712 24.7569V27.7171C12.8712 27.82 12.8209 27.9187 12.7313 27.9915C12.6418 28.0643 12.5203 28.1052 12.3936 28.1052H8.75032C8.62363 28.1052 8.50214 28.0643 8.41256 27.9915C8.32298 27.9187 8.27265 27.82 8.27265 27.7171V24.7569C8.27265 24.7059 8.285 24.6555 8.30901 24.6084C8.33302 24.5613 8.3682 24.5185 8.41256 24.4825C8.45691 24.4464 8.50957 24.4178 8.56752 24.3983C8.62548 24.3788 8.68759 24.3688 8.75032 24.3688H8.70579ZM8.70579 7.28531H12.349C12.4154 7.28026 12.4823 7.28655 12.5455 7.30378C12.6087 7.32101 12.6668 7.3488 12.716 7.38536C12.7652 7.42191 12.8044 7.46643 12.8311 7.51604C12.8579 7.56565 12.8715 7.61926 12.8712 7.67342V10.6336C12.8712 10.7365 12.8209 10.8352 12.7313 10.908C12.6418 10.9808 12.5203 11.0217 12.3936 11.0217H8.75032C8.62363 11.0217 8.50214 10.9808 8.41256 10.908C8.32298 10.8352 8.27265 10.7365 8.27265 10.6336V7.67342C8.27265 7.57049 8.32298 7.47177 8.41256 7.39898C8.50214 7.3262 8.62363 7.28531 8.75032 7.28531H8.70579ZM17.6115 10.3343C17.2594 10.3067 16.9348 10.1678 16.7076 9.94755C16.4804 9.72727 16.3689 9.44327 16.3971 9.1568C16.3689 8.86997 16.4803 8.58558 16.7074 8.36478C16.9344 8.14398 17.2591 8.00439 17.6115 7.97602H31.9983C32.3507 8.00439 32.6754 8.14398 32.9025 8.36478C33.1296 8.58558 33.241 8.86997 33.2127 9.1568C33.2409 9.44327 33.1294 9.72727 32.9022 9.94755C32.675 10.1678 32.3504 10.3067 31.9983 10.3343H17.6115ZM7.7464 17.7939C7.68092 17.725 7.63293 17.6462 7.6052 17.5621C7.57747 17.4781 7.57056 17.3903 7.58487 17.3041C7.59918 17.2178 7.63442 17.1347 7.68855 17.0595C7.74269 16.9844 7.81464 16.9188 7.90023 16.8664C8.06181 16.7396 8.27581 16.6662 8.50039 16.6608C8.72497 16.6553 8.94399 16.7181 9.11465 16.8368L9.96474 17.5505L12.09 15.7876C12.1711 15.7299 12.266 15.6864 12.3689 15.66C12.4717 15.6335 12.5801 15.6246 12.6873 15.6339C12.7946 15.6432 12.8983 15.6704 12.9919 15.7138C13.0856 15.7572 13.1672 15.816 13.2315 15.8863C13.3929 16.0137 13.4898 16.1856 13.5033 16.3681C13.5167 16.5507 13.4458 16.7307 13.3044 16.873L10.4707 19.2214C10.3894 19.2786 10.2944 19.3217 10.1916 19.3479C10.0889 19.374 9.98064 19.3828 9.87359 19.3735C9.76654 19.3643 9.66297 19.3372 9.56931 19.2941C9.47566 19.2509 9.39393 19.1926 9.32919 19.1227L9.26442 19.0602C9.21904 19.0353 9.17698 19.0067 9.13893 18.9747L7.7464 17.7939ZM17.6237 18.6787C17.2712 18.6503 16.9466 18.5107 16.7195 18.2899C16.4924 18.0691 16.381 17.7847 16.4092 17.4979C16.381 17.2111 16.4924 16.9267 16.7195 16.7059C16.9466 16.4851 17.2712 16.3455 17.6237 16.3171H31.9983C32.3507 16.3455 32.6754 16.4851 32.9025 16.7059C33.1296 16.9267 33.241 17.2111 33.2127 17.4979C33.241 17.7847 33.1296 18.0691 32.9025 18.2899C32.6754 18.5107 32.3507 18.6503 31.9983 18.6787H17.6237Z" fill="#007644"/>
</svg>
