<svg width="48" height="41" viewBox="0 0 48 41" fill="none" xmlns="http://www.w3.org/2000/svg">
<path fill-rule="evenodd" clip-rule="evenodd" d="M6.98292 0C9.16518 0 10.9503 1.42417 10.9503 3.16476V10.2675C9.7693 9.79719 8.43693 9.53209 7.02704 9.53209C5.5821 9.53209 4.2184 9.81002 3.01552 10.3024V3.16476C3.01552 1.42417 4.80067 0 6.98292 0ZM41.2957 11.2026C44.9984 11.2026 48 13.5964 48 16.5497C48 19.503 44.9984 21.8971 41.2957 21.8971C37.5931 21.8971 34.5918 19.5033 34.5918 16.5497C34.5922 13.5964 37.5935 11.2026 41.2957 11.2026ZM41.252 0C43.4343 0 45.2194 1.42417 45.2194 3.16476V10.2675C44.0384 9.79719 42.706 9.53209 41.2957 9.53209C39.8508 9.53209 38.4871 9.81002 37.2842 10.3024V3.16476C37.2846 1.42417 39.0697 0 41.252 0ZM45.2194 22.8318V37.2518C45.2194 38.9921 43.4343 40.4163 41.252 40.4163C39.0697 40.4163 37.2846 38.9921 37.2846 37.2518V22.7973C38.4875 23.2893 39.8512 23.5673 41.2961 23.5673C42.706 23.5669 44.0384 23.3022 45.2194 22.8318ZM24.0822 30.8832C27.7849 30.8832 30.7861 28.4894 30.7861 25.5361C30.7861 22.5828 27.7849 20.1887 24.0822 20.1887C20.3795 20.1887 17.3783 22.5825 17.3783 25.5361C17.3783 28.4891 20.3795 30.8832 24.0822 30.8832ZM24.0381 40.4163C26.2203 40.4163 28.0059 38.9918 28.0059 37.2518V31.8018C26.8249 32.2722 25.5098 32.5373 24.0822 32.5373C22.6546 32.5373 21.2736 32.259 20.0707 31.7666V37.2515C20.0711 38.9921 21.8562 40.4163 24.0381 40.4163ZM28.0059 19.2375V3.16476C28.0059 1.4245 26.2203 0 24.0381 0C21.8558 0 20.0707 1.42417 20.0707 3.16476V19.2727C21.2736 18.7803 22.6546 18.5021 24.0822 18.5021C25.5098 18.5021 26.8249 18.7675 28.0059 19.2375ZM7.02663 11.2026C10.7293 11.2026 13.7305 13.5964 13.7305 16.5497C13.7305 19.503 10.7293 21.8971 7.02663 21.8971C3.32439 21.8967 0.322754 19.503 0.322754 16.5494C0.322754 13.5964 3.32439 11.2026 7.02663 11.2026ZM10.9499 22.8318V37.2518C10.9499 38.9921 9.16476 40.4163 6.98251 40.4163C4.80025 40.4163 3.01511 38.9921 3.01511 37.2518V22.7973C4.21799 23.2893 5.58169 23.5673 7.02663 23.5673C8.43693 23.5669 9.76888 23.3022 10.9499 22.8318Z" fill="#6F6F6F"/>
</svg>
